<svg width="584" height="240" viewBox="0 0 584 240" fill="none" xmlns="http://www.w3.org/2000/svg">
<path d="M216.549 73.2734C217.314 70.8125 219.885 69.4453 222.346 70.2109C224.807 70.9766 226.174 73.5469 225.408 76.0078C215.291 108.328 211.572 128.508 211.572 139.445C211.572 142.344 211.9 150.82 216.166 150.82C218.299 150.82 222.236 149.18 228.361 140.922C229.893 138.898 232.791 138.461 234.869 139.992C236.893 141.523 237.33 144.422 235.799 146.5C229.455 155.086 223.002 160.117 216.166 160.117C214.58 160.117 202.275 160.227 202.275 139.445C202.275 126.977 206.432 105.703 216.549 73.2734ZM244.595 116.75C245.087 114.234 247.548 112.594 250.064 113.141C252.579 113.633 254.22 116.094 253.673 118.609C251.978 126.922 251.157 134.578 251.157 141.305C251.157 144.641 251.376 147.977 251.759 151.531C251.978 154.102 250.173 156.398 247.603 156.672C245.032 156.891 242.735 155.086 242.462 152.516C242.079 148.742 241.86 145.078 241.86 141.305C241.86 133.812 242.79 125.5 244.595 116.75ZM251.649 91.2656C252.689 88.9141 255.423 87.8203 257.774 88.8594C260.126 89.8984 261.22 92.6328 260.181 94.9844C258.431 98.9766 257.009 103.406 256.079 107.617C255.532 110.133 253.071 111.719 250.556 111.172C248.04 110.625 246.454 108.164 247.001 105.648C248.04 100.781 249.681 95.8047 251.649 91.2656ZM273.632 95.8047C275.819 94.4375 278.663 95.0938 280.03 97.2812C281.397 99.4688 280.741 102.312 278.554 103.68C274.179 106.414 269.53 116.203 269.53 120.578C269.53 126.102 287.249 124.406 287.249 136.711C287.249 144.367 279.155 153.062 270.241 153.062C267.671 153.062 265.593 150.984 265.593 148.414C265.593 145.844 267.671 143.766 270.241 143.766C274.014 143.766 277.952 139.227 277.952 136.711C277.952 133.758 260.233 133.758 260.233 120.578C260.233 113.469 266.085 100.508 273.632 95.8047ZM285.551 93.5078C283.036 93.9453 280.629 92.3047 280.137 89.7344C279.7 87.2188 281.34 84.8125 283.911 84.3203C289.872 83.2812 296.106 82.0234 302.45 81.3125C304.747 71.6875 307.536 61.5156 310.708 50.9609C311.419 48.4453 313.989 47.0781 316.45 47.8438C318.965 48.5547 320.333 51.125 319.567 53.5859C316.778 63.0469 314.262 72.125 312.129 80.7109C312.294 80.7109 312.458 80.7109 312.622 80.7109C320.551 80.7109 327.879 82.0234 334.551 84.5938C336.958 85.5234 338.161 88.2031 337.231 90.5547C336.301 92.9609 333.622 94.1641 331.27 93.2344C325.692 91.1016 319.567 90.0078 312.622 90.0078C311.747 90.0078 310.817 90.0078 309.942 90.0625C305.458 110.078 303.106 127.086 303.106 139.664C303.106 149.562 304.528 156.562 306.989 161.266C308.137 163.562 307.262 166.352 304.965 167.555C302.669 168.703 299.879 167.828 298.676 165.531C295.34 158.969 293.809 150.219 293.809 139.664C293.809 126.922 296.051 110.188 300.208 90.9922C295.45 91.6484 290.583 92.5781 285.551 93.5078ZM316.612 116.75C317.104 114.234 319.565 112.594 322.08 113.141C324.596 113.633 326.237 116.094 325.69 118.609C323.994 126.922 323.174 134.578 323.174 141.305C323.174 144.641 323.393 147.977 323.776 151.531C323.994 154.102 322.19 156.398 319.619 156.672C317.049 156.891 314.752 155.086 314.479 152.516C314.096 148.742 313.877 145.078 313.877 141.305C313.877 133.812 314.807 125.5 316.612 116.75ZM323.666 91.2656C324.705 88.9141 327.44 87.8203 329.791 88.8594C332.143 89.8984 333.237 92.6328 332.198 94.9844C330.448 98.9766 329.026 103.406 328.096 107.617C327.549 110.133 325.088 111.719 322.573 111.172C320.057 110.625 318.471 108.164 319.018 105.648C320.057 100.781 321.698 95.8047 323.666 91.2656ZM348.055 114.672C347.508 121.891 344.555 131.133 342.859 137.969C351.391 124.516 358.063 105.211 368.344 105.211C372.117 105.211 375.453 107.891 375.453 113.414C375.453 120.742 369.656 133.648 369.656 142.18C369.656 144.258 370.039 145.406 370.367 145.953L370.422 146.008C371.789 148.195 371.188 151.039 369 152.461C366.813 153.828 363.969 153.227 362.547 151.039C360.906 148.469 360.359 145.352 360.359 142.18C360.359 134.25 364.024 124.078 365.555 117.516C356.531 129.164 349.695 152.516 339.086 152.516C335.586 152.516 332.359 150.109 332.359 144.805C332.359 137.75 337.938 123.75 338.758 114.398V114.016C338.977 111.445 341.164 109.531 343.734 109.695C346.305 109.914 348.219 112.102 348.055 114.672ZM413.514 102.039C415.209 104.008 414.99 106.961 413.076 108.602C411.107 110.297 408.154 110.078 406.514 108.164C406.459 108.164 406.404 108.109 406.349 108.109C400.06 111.555 383.709 136.82 383.709 142.508C383.709 143.055 384.31 143.82 384.803 144.039C389.342 143.055 403.123 128.508 408.646 115.055C409.521 112.922 411.764 111.773 413.951 112.266C418.326 113.25 419.529 117.57 419.529 131.352C419.529 164.492 407.115 195.445 389.178 195.445C382.232 195.445 377.092 190.688 376.928 184.344V184.016C376.928 181.445 379.006 179.367 381.576 179.367C384.146 179.367 386.224 181.445 386.224 184.016C386.224 185.93 388.303 186.148 389.178 186.148C398.748 186.148 410.232 162.195 410.232 131.352C405.857 137.859 393.771 153.336 384.748 153.336C379.334 153.336 374.412 148.195 374.412 142.508C374.412 133.156 395.849 98.8125 405.857 98.8125C408.428 98.8125 411.217 99.3594 413.514 102.039ZM426.144 155.141C424.175 149.945 423.191 142.945 423.191 133.922C423.191 114.562 427.238 76.9922 441.894 73.3281C443.808 72.8359 445.886 72.6172 447.91 72.6172C455.511 72.5078 465.629 76.3359 465.629 88.4219C465.629 102.477 447.418 125.281 433.527 130.039C433.308 130.094 433.089 130.148 432.816 130.203C432.816 131.406 432.816 132.664 432.816 133.922C432.816 142.398 433.691 148.086 435.113 151.75C436.043 154.211 434.839 156.945 432.324 157.93C429.863 158.859 427.129 157.656 426.144 155.141ZM456.058 88.4219C456.058 84.2109 453.214 82.1328 448.019 82.1328H447.964C446.652 82.1328 445.339 82.3516 444.191 82.625C440.964 83.4453 435.222 97.7188 433.363 119.648C443.644 113.906 456.058 96.9531 456.058 88.4219ZM481.136 109.969C481.573 112.484 479.933 114.891 477.362 115.383C475.448 115.711 474.026 114.727 473.698 114.453C469.651 117.352 462.269 130.094 460.519 138.078C470.854 127.742 479.167 113.797 485.456 113.523C486.933 113.469 488.354 114.125 489.284 115.273C490.761 117.188 491.144 119.484 491.144 121.344C491.144 127.195 487.479 134.742 487.479 139.828C487.479 140.648 487.479 141.578 488.3 142.016H488.409C490.706 143.164 491.69 145.898 490.597 148.25C489.448 150.547 486.714 151.531 484.362 150.438C482.011 149.289 478.183 146.555 478.183 139.828C478.183 136.492 479.112 132.828 479.878 129.984C469.323 142.289 463.144 150.547 457.401 150.547C454.448 150.547 450.675 148.359 450.675 141.852C450.675 131.023 463.362 105.375 473.425 104.883C476.323 104.773 480.479 106.414 481.136 109.969ZM510.936 79.3984C511.811 76.9375 514.436 75.6797 516.842 76.5547C519.303 77.4297 520.561 80.0547 519.686 82.4609C511.811 104.719 507.983 122.984 507.983 137.477C507.983 144.805 509.077 151.969 511.92 151.969C512.358 151.969 512.905 151.859 514.217 151.312C516.569 150.273 519.303 151.367 520.342 153.719C521.381 156.07 520.288 158.805 517.936 159.844C515.967 160.719 514.108 161.266 511.92 161.266C498.85 161.266 498.686 143.328 498.686 137.477C498.686 121.453 502.842 102.094 510.936 79.3984Z" fill="black"/>
<g clip-path="url(#clip0_20_971)">
<path d="M62 120C62 72.237 72.237 62 120 62C167.763 62 178 72.237 178 120C178 167.763 167.763 178 120 178C72.237 178 62 167.763 62 120Z" fill="#18181B"/>
<mask id="mask0_20_971" style="mask-type:alpha" maskUnits="userSpaceOnUse" x="62" y="62" width="116" height="116">
<path d="M62 120C62 72.237 72.237 62 120 62C167.763 62 178 72.237 178 120C178 167.763 167.763 178 120 178C72.237 178 62 167.763 62 120Z" fill="#18181B"/>
</mask>
<g mask="url(#mask0_20_971)">
<path d="M105.656 50.2734C106.422 47.8125 108.992 46.4453 111.453 47.2109C113.914 47.9766 115.281 50.5469 114.516 53.0078C104.398 85.3281 100.68 105.508 100.68 116.445C100.68 119.344 101.008 127.82 105.273 127.82C107.406 127.82 111.344 126.18 117.469 117.922C119 115.898 121.898 115.461 123.977 116.992C126 118.523 126.438 121.422 124.906 123.5C118.562 132.086 112.109 137.117 105.273 137.117C103.688 137.117 91.3828 137.227 91.3828 116.445C91.3828 103.977 95.5391 82.7031 105.656 50.2734Z" fill="white"/>
<path d="M114.586 182.141C112.617 176.945 111.633 169.945 111.633 160.922C111.633 141.562 115.68 103.992 130.336 100.328C132.25 99.8359 134.328 99.6172 136.352 99.6172C143.953 99.5078 154.07 103.336 154.07 115.422C154.07 129.477 135.859 152.281 121.969 157.039C121.75 157.094 121.531 157.148 121.258 157.203C121.258 158.406 121.258 159.664 121.258 160.922C121.258 169.398 122.133 175.086 123.555 178.75C124.484 181.211 123.281 183.945 120.766 184.93C118.305 185.859 115.57 184.656 114.586 182.141ZM144.5 115.422C144.5 111.211 141.656 109.133 136.461 109.133H136.406C135.094 109.133 133.781 109.352 132.633 109.625C129.406 110.445 123.664 124.719 121.805 146.648C132.086 140.906 144.5 123.953 144.5 115.422Z" fill="white"/>
</g>
</g>
<defs>
<clipPath id="clip0_20_971">
<rect width="116" height="116" fill="white" transform="translate(62 62)"/>
</clipPath>
</defs>
</svg>
